<svg xmlns="http://www.w3.org/2000/svg" width="1200" height="630" viewBox="0 0 1200 630">
  <rect width="1200" height="630" fill="#0d1b3e"/>
  <rect x="0" y="0" width="8" height="630" fill="#f97316"/>
  <!-- Shield logo -->
  <g transform="translate(100,215)">
    <path d="M100 10L10 45v70c0 50 36 97 90 112c54-15 90-62 90-112V45L100 10z" fill="#1a2f5e"/>
    <path d="M100 18L18 51v64c0 47 34 91 82 104c48-13 82-57 82-104V51L100 18z" fill="none" stroke="#f97316" stroke-width="6"/>
    <text x="100" y="135" font-family="system-ui,sans-serif" font-size="80" font-weight="700" fill="#f97316" text-anchor="middle">A</text>
  </g>
  <!-- Brand name -->
  <text x="280" y="280" font-family="system-ui,sans-serif" font-size="72" font-weight="700" fill="#ffffff">Armidillo</text>
  <!-- Tagline -->
  <text x="280" y="345" font-family="system-ui,sans-serif" font-size="28" fill="rgba(255,255,255,0.75)">Protecting You From Identity Theft &amp; Online Scams</text>
  <!-- Domain -->
  <text x="280" y="410" font-family="system-ui,sans-serif" font-size="22" fill="#f97316">armidillo.com</text>
  <!-- Bottom bar -->
  <rect x="0" y="590" width="1200" height="40" fill="rgba(249,115,22,0.15)"/>
  <text x="600" y="616" font-family="system-ui,sans-serif" font-size="18" fill="rgba(255,255,255,0.5)" text-anchor="middle">Identity Protection · Scam Prevention · Senior Security · Fraud Alerts</text>
</svg>
